<svg id="Layer_1" data-name="Layer 1" xmlns="http://www.w3.org/2000/svg" xmlns:xlink="http://www.w3.org/1999/xlink" viewBox="0 0 438.7 491.76"><defs><style>.cls-1{fill:url(#linear-gradient);}</style><linearGradient id="linear-gradient" x1="219.35" x2="219.35" y2="491.76" gradientUnits="userSpaceOnUse"><stop offset="0" stop-color="#ff4500"/><stop offset="0.53" stop-color="#ff8900"/><stop offset="0.65" stop-color="#fd8902"/><stop offset="0.69" stop-color="#f68b09"/><stop offset="0.72" stop-color="#ea8d15"/><stop offset="0.75" stop-color="#d99126"/><stop offset="0.77" stop-color="#c3963c"/><stop offset="0.79" stop-color="#a79c58"/><stop offset="0.81" stop-color="#87a278"/><stop offset="0.83" stop-color="#61aa9e"/><stop offset="0.84" stop-color="#37b3c8"/><stop offset="0.85" stop-color="#1cb9e3"/><stop offset="0.98" stop-color="#00bfff"/></linearGradient></defs><g id="Layer_2" data-name="Layer 2"><g id="Layer_1-2" data-name="Layer 1-2"><path class="cls-1" d="M230.9,180.4c.5,2.2.9,4.1,1.4,6.5,13.7-10.2,26.5-6.2,40,1.2l-19.2,15.7c8.4,4.2,18.1,7.1,24.9,13.2s10.9,15.3,16.2,23.1l-1.9,2.2c-15.7-2.8-31.5-5.6-47.2-8.3l-2.1,2.4c2,1,4.3,1.7,5.9,3.2a130.12,130.12,0,0,1,35.5,54.1c5,14.2,5.2,14.4,21.3,15.1a4.42,4.42,0,0,0,.8-1.2c3.8-52.2,2.1-103.8-16-153.7-7.9-21.8-20.6-41.9-34.7-54.7-12.7,27.7-25.1,54.7-38.2,83.3-19-28.2-30.9-55.2-13.6-87.9-12.9,5.6-25.8,11.3-38.7,17-4.8-25.5,6.4-48.5,29.2-58-4.8-2.4-8.7-4.3-13.4-6.7,16.5-16,34.9-17.6,54.4-10.5,4-7.2,6.9-14.7,11.7-20.4s11.7-9.8,19.6-16V17.5l1.5,1.5Q281.2,3,301,4.6c12.7,1.1,24.1,5.7,35.4,13.1-11.9,9-23.3,17.6-36.8,27.8,18.7,1,33.4,5.8,44.6,18.1,10.7,11.7,17.9,25.3,22.6,41.3-31-1.6-59.6-14.9-91.4-15.8,1.1,2.3,1.3,3.3,1.9,4,36.6,43.3,54.9,94.3,62.8,149.5,3.3,23.1,3.8,46.5,4.8,69.9.3,6.6,1.8,9.9,8.2,12.4,29.1,11.6,55,28,75.1,52.6,1.1,1.4,2.2,2.8,2.8,3.7-71.7-1.3-143.7-3.7-215.6-3.6S71.7,380.4,0,382c1.1-1.4,3-4,5.1-6.4,26.4-29.8,60.5-46.9,97.6-58.5,49.5-15.5,100.2-19.5,151.7-15.5,2,.2,4,0,6.4,0-5.3-25-16.1-46.1-37.8-63.3-5.2,18.3-10.1,35.7-15.3,54.5-15.1-15.8-24-31.8-14.4-54.6-9.4,4.4-17,7.9-24.6,11.5-3.3-16,2-28.7,15.6-36.3-2.5-1.5-4.6-2.8-7.2-4.3,10.8-10.6,23.1-10.9,36.4-6.3C215.9,192.1,220.8,184.3,230.9,180.4ZM5.1,418.3c4.2,1,8.3,2.5,12.6,2.8,34.9,2.4,69.9,5.5,104.9,6.6,97.1,3,194.2,3.1,291.1-4.9,8.3-.7,16.6-2.7,24.9-4.1a20.9,20.9,0,0,1,.1-2.5c-3.1-.9-6.1-2.4-9.2-2.8-13.4-1.7-26.8-3.8-40.2-4.3-51.1-1.9-102.3-4.7-153.4-4.3-66.2.5-132.3,3.5-198.5,5.8-10.7.4-21.3,2.7-31.9,4.2A19.55,19.55,0,0,0,5.1,418.3ZM90,453.9c22.3,11.6,243.8,11.5,263.5-.1A1389,1389,0,0,0,90,453.9Zm65.3,34.3a617.79,617.79,0,0,0,132.5,0,593,593,0,0,0-132.5,0Z" transform="translate(0 0)"/></g></g></svg>